<?xml version="1.0" encoding="UTF-8" standalone="no"?>
<!DOCTYPE svg PUBLIC "-//W3C//DTD SVG 1.1//EN"
 "http://www.w3.org/Graphics/SVG/1.1/DTD/svg11.dtd">
<!-- Generated by graphviz version 2.43.0 (0)
 -->
<!-- Title: G Pages: 1 -->
<svg width="466pt" height="182pt"
 viewBox="0.00 0.00 466.00 182.00" xmlns="http://www.w3.org/2000/svg" xmlns:xlink="http://www.w3.org/1999/xlink">
<g id="graph0" class="graph" transform="scale(1 1) rotate(0) translate(4 178)">
<title>G</title>
<polygon fill="white" stroke="transparent" points="-4,4 -4,-178 462,-178 462,4 -4,4"/>
<g id="clust1" class="cluster">
<title>cluster_0</title>
<polygon fill="none" stroke="black" points="86,-91 86,-166 300,-166 300,-91 86,-91"/>
<text text-anchor="middle" x="193" y="-150.8" font-family="Times,serif" font-size="14.00">Subgraph A</text>
</g>
<g id="clust2" class="cluster">
<title>cluster_1</title>
<polygon fill="none" stroke="black" points="8,-8 8,-83 150,-83 150,-8 8,-8"/>
<text text-anchor="middle" x="79" y="-67.8" font-family="Times,serif" font-size="14.00">Subgraph B</text>
</g>
<g id="clust3" class="cluster">
<title>cluster_2</title>
<polygon fill="none" stroke="black" points="158,-8 158,-83 300,-83 300,-8 158,-8"/>
<text text-anchor="middle" x="229" y="-67.8" font-family="Times,serif" font-size="14.00">Subgraph C</text>
</g>
<g id="clust4" class="cluster">
<title>cluster_3</title>
<polygon fill="none" stroke="black" points="308,-8 308,-83 450,-83 450,-8 308,-8"/>
<text text-anchor="middle" x="379" y="-67.8" font-family="Times,serif" font-size="14.00">Subgraph D</text>
</g>
<!-- a -->
<g id="node1" class="node">
<title>a</title>
<ellipse fill="none" stroke="black" cx="121" cy="-117" rx="27" ry="18"/>
<text text-anchor="middle" x="121" y="-113.3" font-family="Times,serif" font-size="14.00">a</text>
</g>
<!-- d -->
<g id="node4" class="node">
<title>d</title>
<ellipse fill="none" stroke="black" cx="115" cy="-34" rx="27" ry="18"/>
<text text-anchor="middle" x="115" y="-30.3" font-family="Times,serif" font-size="14.00">d</text>
</g>
<!-- a&#45;&#45;d -->
<g id="edge1" class="edge">
<title>a&#45;&#45;d</title>
<path fill="none" stroke="black" d="M119.73,-98.82C118.71,-85.08 117.29,-65.89 116.27,-52.15"/>
</g>
<!-- e -->
<g id="node5" class="node">
<title>e</title>
<ellipse fill="none" stroke="black" cx="43" cy="-34" rx="27" ry="18"/>
<text text-anchor="middle" x="43" y="-30.3" font-family="Times,serif" font-size="14.00">e</text>
</g>
<!-- a&#45;&#45;e -->
<g id="edge2" class="edge">
<title>a&#45;&#45;e</title>
<path fill="none" stroke="black" d="M107.06,-101.52C92.95,-86.87 71.25,-64.33 57.09,-49.63"/>
</g>
<!-- b -->
<g id="node2" class="node">
<title>b</title>
<ellipse fill="none" stroke="black" cx="193" cy="-117" rx="27" ry="18"/>
<text text-anchor="middle" x="193" y="-113.3" font-family="Times,serif" font-size="14.00">b</text>
</g>
<!-- f -->
<g id="node6" class="node">
<title>f</title>
<ellipse fill="none" stroke="black" cx="193" cy="-34" rx="27" ry="18"/>
<text text-anchor="middle" x="193" y="-30.3" font-family="Times,serif" font-size="14.00">f</text>
</g>
<!-- b&#45;&#45;f -->
<g id="edge3" class="edge">
<title>b&#45;&#45;f</title>
<path fill="none" stroke="black" d="M193,-98.82C193,-85.08 193,-65.89 193,-52.15"/>
</g>
<!-- g -->
<g id="node7" class="node">
<title>g</title>
<ellipse fill="none" stroke="black" cx="265" cy="-34" rx="27" ry="18"/>
<text text-anchor="middle" x="265" y="-30.3" font-family="Times,serif" font-size="14.00">g</text>
</g>
<!-- b&#45;&#45;g -->
<g id="edge4" class="edge">
<title>b&#45;&#45;g</title>
<path fill="none" stroke="black" d="M206.21,-101.14C219.2,-86.53 238.92,-64.34 251.88,-49.76"/>
</g>
<!-- c -->
<g id="node3" class="node">
<title>c</title>
<ellipse fill="none" stroke="black" cx="265" cy="-117" rx="27" ry="18"/>
<text text-anchor="middle" x="265" y="-113.3" font-family="Times,serif" font-size="14.00">c</text>
</g>
<!-- c&#45;&#45;g -->
<g id="edge5" class="edge">
<title>c&#45;&#45;g</title>
<path fill="none" stroke="black" d="M265,-98.82C265,-85.08 265,-65.89 265,-52.15"/>
</g>
<!-- h -->
<g id="node8" class="node">
<title>h</title>
<ellipse fill="none" stroke="black" cx="415" cy="-34" rx="27" ry="18"/>
<text text-anchor="middle" x="415" y="-30.3" font-family="Times,serif" font-size="14.00">h</text>
</g>
<!-- c&#45;&#45;h -->
<g id="edge6" class="edge">
<title>c&#45;&#45;h</title>
<path fill="none" stroke="black" d="M285.23,-105.08C313.86,-89.62 365.9,-61.52 394.61,-46.01"/>
</g>
<!-- i -->
<g id="node9" class="node">
<title>i</title>
<ellipse fill="none" stroke="black" cx="343" cy="-34" rx="27" ry="18"/>
<text text-anchor="middle" x="343" y="-30.3" font-family="Times,serif" font-size="14.00">i</text>
</g>
<!-- c&#45;&#45;i -->
<g id="edge7" class="edge">
<title>c&#45;&#45;i</title>
<path fill="none" stroke="black" d="M278.94,-101.52C293.05,-86.87 314.75,-64.33 328.91,-49.63"/>
</g>
</g>
</svg>
