<?xml version="1.0" encoding="UTF-8" standalone="no"?>
<!DOCTYPE svg PUBLIC "-//W3C//DTD SVG 1.1//EN"
 "http://www.w3.org/Graphics/SVG/1.1/DTD/svg11.dtd">
<!-- Generated by graphviz version 2.43.0 (0)
 -->
<!-- Title: html Pages: 1 -->
<svg width="1076pt" height="173pt"
 viewBox="0.00 0.00 1076.00 173.00" xmlns="http://www.w3.org/2000/svg" xmlns:xlink="http://www.w3.org/1999/xlink">
<g id="graph0" class="graph" transform="scale(1 1) rotate(0) translate(4 169)">
<title>html</title>
<polygon fill="white" stroke="transparent" points="-4,4 -4,-169 1072,-169 1072,4 -4,4"/>
<!-- abc -->
<g id="node1" class="node">
<title>abc</title>
<polygon fill="none" stroke="black" points="0,-124.5 0,-164.5 1068,-164.5 1068,-124.5 0,-124.5"/>
<text text-anchor="start" x="514" y="-148.3" font-family="Times,serif" font-size="14.00" fill="red">Write</text>
<text text-anchor="start" x="503.5" y="-133.3" font-family="Times,serif" font-size="14.00">Profiling</text>
<polygon fill="none" stroke="black" points="0,-49.5 0,-124.5 41,-124.5 41,-49.5 0,-49.5"/>
<polygon fill="none" stroke="black" points="41,-99.5 41,-124.5 83,-124.5 83,-99.5 41,-99.5"/>
<text text-anchor="start" x="46" y="-108.3" font-family="Times,serif" font-size="14.00">CPU</text>
<polygon fill="none" stroke="black" points="83,-99.5 83,-124.5 175,-124.5 175,-99.5 83,-99.5"/>
<text text-anchor="start" x="110.5" y="-108.3" font-family="Times,serif" font-size="14.00">Mem</text>
<polygon fill="none" stroke="black" points="175,-99.5 175,-124.5 524,-124.5 524,-99.5 175,-99.5"/>
<text text-anchor="start" x="322.5" y="-108.3" font-family="Times,serif" font-size="14.00">IO&#45;Disk</text>
<polygon fill="none" stroke="black" points="524,-99.5 524,-124.5 1068,-124.5 1068,-99.5 524,-99.5"/>
<text text-anchor="start" x="765" y="-108.3" font-family="Times,serif" font-size="14.00">Network</text>
<polygon fill="lightgrey" stroke="transparent" points="41,-49.5 41,-99.5 83,-99.5 83,-49.5 41,-49.5"/>
<polygon fill="none" stroke="black" points="41,-49.5 41,-99.5 83,-99.5 83,-49.5 41,-49.5"/>
<text text-anchor="start" x="49.5" y="-70.8" font-family="Times,serif" font-size="14.00">util</text>
<polygon fill="lightgrey" stroke="transparent" points="83,-49.5 83,-99.5 175,-99.5 175,-49.5 83,-49.5"/>
<polygon fill="none" stroke="black" points="83,-49.5 83,-99.5 175,-99.5 175,-49.5 83,-49.5"/>
<text text-anchor="start" x="88" y="-70.8" font-family="Times,serif" font-size="14.00">throughput</text>
<polygon fill="lightgrey" stroke="transparent" points="175,-74.5 175,-99.5 332,-99.5 332,-74.5 175,-74.5"/>
<polygon fill="none" stroke="black" points="175,-74.5 175,-99.5 332,-99.5 332,-74.5 175,-74.5"/>
<text text-anchor="start" x="237" y="-83.3" font-family="Times,serif" font-size="14.00">read</text>
<polygon fill="lightgrey" stroke="transparent" points="332,-74.5 332,-99.5 489,-99.5 489,-74.5 332,-74.5"/>
<polygon fill="none" stroke="black" points="332,-74.5 332,-99.5 489,-99.5 489,-74.5 332,-74.5"/>
<text text-anchor="start" x="391.5" y="-83.3" font-family="Times,serif" font-size="14.00">write</text>
<polygon fill="lightgrey" stroke="transparent" points="489,-49.5 489,-99.5 524,-99.5 524,-49.5 489,-49.5"/>
<polygon fill="none" stroke="black" points="489,-49.5 489,-99.5 524,-99.5 524,-49.5 489,-49.5"/>
<text text-anchor="start" x="494" y="-70.8" font-family="Times,serif" font-size="14.00">util</text>
<polygon fill="lightgrey" stroke="transparent" points="524,-74.5 524,-99.5 796,-99.5 796,-74.5 524,-74.5"/>
<polygon fill="none" stroke="black" points="524,-74.5 524,-99.5 796,-99.5 796,-74.5 524,-74.5"/>
<text text-anchor="start" x="633.5" y="-83.3" font-family="Times,serif" font-size="14.00">ingress</text>
<polygon fill="lightgrey" stroke="transparent" points="796,-74.5 796,-99.5 1068,-99.5 1068,-74.5 796,-74.5"/>
<polygon fill="none" stroke="black" points="796,-74.5 796,-99.5 1068,-99.5 1068,-74.5 796,-74.5"/>
<text text-anchor="start" x="908" y="-83.3" font-family="Times,serif" font-size="14.00">egress</text>
<polygon fill="none" stroke="black" points="175,-49.5 175,-74.5 267,-74.5 267,-49.5 175,-49.5"/>
<text text-anchor="start" x="180" y="-58.3" font-family="Times,serif" font-size="14.00">throughput</text>
<polygon fill="none" stroke="black" points="267,-49.5 267,-74.5 332,-74.5 332,-49.5 267,-49.5"/>
<text text-anchor="start" x="272" y="-58.3" font-family="Times,serif" font-size="14.00">request</text>
<polygon fill="none" stroke="black" points="332,-49.5 332,-74.5 424,-74.5 424,-49.5 332,-49.5"/>
<text text-anchor="start" x="337" y="-58.3" font-family="Times,serif" font-size="14.00">throughput</text>
<polygon fill="none" stroke="black" points="424,-49.5 424,-74.5 489,-74.5 489,-49.5 424,-49.5"/>
<text text-anchor="start" x="429" y="-58.3" font-family="Times,serif" font-size="14.00">request</text>
<polygon fill="none" stroke="black" points="524,-49.5 524,-74.5 616,-74.5 616,-49.5 524,-49.5"/>
<text text-anchor="start" x="529" y="-58.3" font-family="Times,serif" font-size="14.00">throughput</text>
<polygon fill="none" stroke="black" points="616,-49.5 616,-74.5 708,-74.5 708,-49.5 616,-49.5"/>
<text text-anchor="start" x="621" y="-58.3" font-family="Times,serif" font-size="14.00">packetNum</text>
<polygon fill="none" stroke="black" points="708,-49.5 708,-74.5 796,-74.5 796,-49.5 708,-49.5"/>
<text text-anchor="start" x="713" y="-58.3" font-family="Times,serif" font-size="14.00">packetSize</text>
<polygon fill="none" stroke="black" points="796,-49.5 796,-74.5 888,-74.5 888,-49.5 796,-49.5"/>
<text text-anchor="start" x="801" y="-58.3" font-family="Times,serif" font-size="14.00">throughput</text>
<polygon fill="none" stroke="black" points="888,-49.5 888,-74.5 980,-74.5 980,-49.5 888,-49.5"/>
<text text-anchor="start" x="893" y="-58.3" font-family="Times,serif" font-size="14.00">packetNum</text>
<polygon fill="none" stroke="black" points="980,-49.5 980,-74.5 1068,-74.5 1068,-49.5 980,-49.5"/>
<text text-anchor="start" x="985" y="-58.3" font-family="Times,serif" font-size="14.00">packetSize</text>
<polygon fill="lightgreen" stroke="transparent" points="0,-24.5 0,-49.5 41,-49.5 41,-24.5 0,-24.5"/>
<polygon fill="none" stroke="black" points="0,-24.5 0,-49.5 41,-49.5 41,-24.5 0,-24.5"/>
<text text-anchor="start" x="6.5" y="-33.3" font-family="Times,serif" font-size="14.00">Avg</text>
<polygon fill="none" stroke="black" points="41,-24.5 41,-49.5 83,-49.5 83,-24.5 41,-24.5"/>
<text text-anchor="start" x="57" y="-33.3" font-family="Times,serif" font-size="14.00">0</text>
<polygon fill="none" stroke="black" points="83,-24.5 83,-49.5 175,-49.5 175,-24.5 83,-24.5"/>
<text text-anchor="start" x="124" y="-33.3" font-family="Times,serif" font-size="14.00">0</text>
<polygon fill="none" stroke="black" points="175,-24.5 175,-49.5 267,-49.5 267,-24.5 175,-24.5"/>
<text text-anchor="start" x="216" y="-33.3" font-family="Times,serif" font-size="14.00">0</text>
<polygon fill="none" stroke="black" points="267,-24.5 267,-49.5 332,-49.5 332,-24.5 267,-24.5"/>
<text text-anchor="start" x="294.5" y="-33.3" font-family="Times,serif" font-size="14.00">0</text>
<polygon fill="none" stroke="black" points="332,-24.5 332,-49.5 424,-49.5 424,-24.5 332,-24.5"/>
<text text-anchor="start" x="373" y="-33.3" font-family="Times,serif" font-size="14.00">0</text>
<polygon fill="none" stroke="black" points="424,-24.5 424,-49.5 489,-49.5 489,-24.5 424,-24.5"/>
<text text-anchor="start" x="451.5" y="-33.3" font-family="Times,serif" font-size="14.00">0</text>
<polygon fill="none" stroke="black" points="489,-24.5 489,-49.5 524,-49.5 524,-24.5 489,-24.5"/>
<text text-anchor="start" x="501.5" y="-33.3" font-family="Times,serif" font-size="14.00">0</text>
<polygon fill="none" stroke="black" points="524,-24.5 524,-49.5 616,-49.5 616,-24.5 524,-24.5"/>
<text text-anchor="start" x="565" y="-33.3" font-family="Times,serif" font-size="14.00">0</text>
<polygon fill="none" stroke="black" points="616,-24.5 616,-49.5 708,-49.5 708,-24.5 616,-24.5"/>
<text text-anchor="start" x="657" y="-33.3" font-family="Times,serif" font-size="14.00">0</text>
<polygon fill="none" stroke="black" points="708,-24.5 708,-49.5 796,-49.5 796,-24.5 708,-24.5"/>
<text text-anchor="start" x="747" y="-33.3" font-family="Times,serif" font-size="14.00">0</text>
<polygon fill="none" stroke="black" points="796,-24.5 796,-49.5 888,-49.5 888,-24.5 796,-24.5"/>
<text text-anchor="start" x="837" y="-33.3" font-family="Times,serif" font-size="14.00">0</text>
<polygon fill="none" stroke="black" points="888,-24.5 888,-49.5 980,-49.5 980,-24.5 888,-24.5"/>
<text text-anchor="start" x="929" y="-33.3" font-family="Times,serif" font-size="14.00">0</text>
<polygon fill="none" stroke="black" points="980,-24.5 980,-49.5 1068,-49.5 1068,-24.5 980,-24.5"/>
<text text-anchor="start" x="1019" y="-33.3" font-family="Times,serif" font-size="14.00">0</text>
<polygon fill="lightgreen" stroke="transparent" points="0,0.5 0,-24.5 41,-24.5 41,0.5 0,0.5"/>
<polygon fill="none" stroke="black" points="0,0.5 0,-24.5 41,-24.5 41,0.5 0,0.5"/>
<text text-anchor="start" x="5" y="-8.3" font-family="Times,serif" font-size="14.00">Max</text>
<polygon fill="none" stroke="black" points="41,0.5 41,-24.5 83,-24.5 83,0.5 41,0.5"/>
<text text-anchor="start" x="57" y="-8.3" font-family="Times,serif" font-size="14.00">0</text>
<polygon fill="none" stroke="black" points="83,0.5 83,-24.5 175,-24.5 175,0.5 83,0.5"/>
<text text-anchor="start" x="124" y="-8.3" font-family="Times,serif" font-size="14.00">0</text>
<polygon fill="none" stroke="black" points="175,0.5 175,-24.5 267,-24.5 267,0.5 175,0.5"/>
<text text-anchor="start" x="216" y="-8.3" font-family="Times,serif" font-size="14.00">0</text>
<polygon fill="none" stroke="black" points="267,0.5 267,-24.5 332,-24.5 332,0.5 267,0.5"/>
<text text-anchor="start" x="294.5" y="-8.3" font-family="Times,serif" font-size="14.00">0</text>
<polygon fill="none" stroke="black" points="332,0.5 332,-24.5 424,-24.5 424,0.5 332,0.5"/>
<text text-anchor="start" x="373" y="-8.3" font-family="Times,serif" font-size="14.00">0</text>
<polygon fill="none" stroke="black" points="424,0.5 424,-24.5 489,-24.5 489,0.5 424,0.5"/>
<text text-anchor="start" x="451.5" y="-8.3" font-family="Times,serif" font-size="14.00">0</text>
<polygon fill="none" stroke="black" points="489,0.5 489,-24.5 524,-24.5 524,0.5 489,0.5"/>
<text text-anchor="start" x="501.5" y="-8.3" font-family="Times,serif" font-size="14.00">0</text>
<polygon fill="none" stroke="black" points="524,0.5 524,-24.5 616,-24.5 616,0.5 524,0.5"/>
<text text-anchor="start" x="565" y="-8.3" font-family="Times,serif" font-size="14.00">0</text>
<polygon fill="none" stroke="black" points="616,0.5 616,-24.5 708,-24.5 708,0.5 616,0.5"/>
<text text-anchor="start" x="657" y="-8.3" font-family="Times,serif" font-size="14.00">0</text>
<polygon fill="none" stroke="black" points="708,0.5 708,-24.5 796,-24.5 796,0.5 708,0.5"/>
<text text-anchor="start" x="747" y="-8.3" font-family="Times,serif" font-size="14.00">0</text>
<polygon fill="none" stroke="black" points="796,0.5 796,-24.5 888,-24.5 888,0.5 796,0.5"/>
<text text-anchor="start" x="837" y="-8.3" font-family="Times,serif" font-size="14.00">0</text>
<polygon fill="none" stroke="black" points="888,0.5 888,-24.5 980,-24.5 980,0.5 888,0.5"/>
<text text-anchor="start" x="929" y="-8.3" font-family="Times,serif" font-size="14.00">0</text>
<polygon fill="none" stroke="black" points="980,0.5 980,-24.5 1068,-24.5 1068,0.5 980,0.5"/>
<text text-anchor="start" x="1019" y="-8.3" font-family="Times,serif" font-size="14.00">0</text>
</g>
</g>
</svg>
