<?xml version="1.0" encoding="UTF-8" standalone="no"?>
<!DOCTYPE svg PUBLIC "-//W3C//DTD SVG 1.1//EN"
 "http://www.w3.org/Graphics/SVG/1.1/DTD/svg11.dtd">
<!-- Generated by graphviz version 2.43.0 (0)
 -->
<!-- Title: G Pages: 1 -->
<svg width="480pt" height="177pt"
 viewBox="0.00 0.00 480.40 177.40" xmlns="http://www.w3.org/2000/svg" xmlns:xlink="http://www.w3.org/1999/xlink">
<g id="graph0" class="graph" transform="scale(1 1) rotate(0) translate(7.2 170.2)">
<title>G</title>
<polygon fill="white" stroke="transparent" points="-7.2,7.2 -7.2,-170.2 473.2,-170.2 473.2,7.2 -7.2,7.2"/>
<g id="clust1" class="cluster">
<title>cluster3</title>
<polygon fill="#f2f2f2" stroke="#999999" points="8,-80 8,-155 149,-155 149,-80 8,-80"/>
<text text-anchor="middle" x="78.5" y="-139.8" font-family="Helvetica,sans-Serif" font-size="14.00" fill="#1a1a1a">Common Runtime</text>
</g>
<g id="clust2" class="cluster">
<title>cluster1</title>
<polygon fill="#f2f2f2" stroke="#999999" points="157,-8 157,-155 325,-155 325,-8 157,-8"/>
<text text-anchor="middle" x="241" y="-139.8" font-family="Helvetica,sans-Serif" font-size="14.00" fill="#1a1a1a">Private Space A</text>
</g>
<g id="clust3" class="cluster">
<title>cluster2</title>
<polygon fill="#f2f2f2" stroke="#999999" points="333,-80 333,-155 458,-155 458,-80 333,-80"/>
<text text-anchor="middle" x="395.5" y="-139.8" font-family="Helvetica,sans-Serif" font-size="14.00" fill="#1a1a1a">Private Space B</text>
</g>
<!-- App C -->
<g id="node1" class="node">
<title>App C</title>
<path fill="#fcfcfc" stroke="#551a8b" stroke-width="2" d="M129,-124C129,-124 99,-124 99,-124 93,-124 87,-118 87,-112 87,-112 87,-100 87,-100 87,-94 93,-88 99,-88 99,-88 129,-88 129,-88 135,-88 141,-94 141,-100 141,-100 141,-112 141,-112 141,-118 135,-124 129,-124"/>
<text text-anchor="middle" x="114" y="-102.9" font-family="Helvetica,sans-Serif" font-size="12.00" fill="#551a8b">App C</text>
</g>
<!-- Postgres Instance\n(Private or Shield Plan) -->
<g id="node3" class="node">
<title>Postgres Instance\n(Private or Shield Plan)</title>
<path fill="#fcfcfc" stroke="#551a8b" stroke-width="2" d="M305,-52C305,-52 177,-52 177,-52 171,-52 165,-46 165,-40 165,-40 165,-28 165,-28 165,-22 171,-16 177,-16 177,-16 305,-16 305,-16 311,-16 317,-22 317,-28 317,-28 317,-40 317,-40 317,-46 311,-52 305,-52"/>
<text text-anchor="middle" x="241" y="-37.4" font-family="Helvetica,sans-Serif" font-size="12.00" fill="#551a8b">Postgres Instance</text>
<text text-anchor="middle" x="241" y="-24.4" font-family="Helvetica,sans-Serif" font-size="12.00" fill="#551a8b">(Private or Shield Plan)</text>
</g>
<!-- App C&#45;&gt;Postgres Instance\n(Private or Shield Plan) -->
<g id="edge3" class="edge">
<title>App C:s&#45;&gt;Postgres Instance\n(Private or Shield Plan):w</title>
<path fill="none" stroke="red" stroke-width="2" stroke-dasharray="5,2" d="M114,-87C114,-54.62 131.62,-34 164,-34"/>
</g>
<!-- App A -->
<g id="node2" class="node">
<title>App A</title>
<path fill="#fcfcfc" stroke="#551a8b" stroke-width="2" d="M256,-124C256,-124 226,-124 226,-124 220,-124 214,-118 214,-112 214,-112 214,-100 214,-100 214,-94 220,-88 226,-88 226,-88 256,-88 256,-88 262,-88 268,-94 268,-100 268,-100 268,-112 268,-112 268,-118 262,-124 256,-124"/>
<text text-anchor="middle" x="241" y="-102.9" font-family="Helvetica,sans-Serif" font-size="12.00" fill="#551a8b">App A</text>
</g>
<!-- App A&#45;&gt;Postgres Instance\n(Private or Shield Plan) -->
<g id="edge1" class="edge">
<title>App A&#45;&gt;Postgres Instance\n(Private or Shield Plan)</title>
<path fill="none" stroke="#66cd00" stroke-width="2" d="M241,-87.7C241,-78.46 241,-66.98 241,-57.11"/>
<polygon fill="#66cd00" stroke="#66cd00" stroke-width="2" points="242.75,-57.1 241,-52.1 239.25,-57.1 242.75,-57.1"/>
</g>
<!-- App B -->
<g id="node4" class="node">
<title>App B</title>
<path fill="#fcfcfc" stroke="#551a8b" stroke-width="2" d="M383,-124C383,-124 353,-124 353,-124 347,-124 341,-118 341,-112 341,-112 341,-100 341,-100 341,-94 347,-88 353,-88 353,-88 383,-88 383,-88 389,-88 395,-94 395,-100 395,-100 395,-112 395,-112 395,-118 389,-124 383,-124"/>
<text text-anchor="middle" x="368" y="-102.9" font-family="Helvetica,sans-Serif" font-size="12.00" fill="#551a8b">App B</text>
</g>
<!-- App B&#45;&gt;Postgres Instance\n(Private or Shield Plan) -->
<g id="edge2" class="edge">
<title>App B:s&#45;&gt;Postgres Instance\n(Private or Shield Plan):e</title>
<path fill="none" stroke="red" stroke-width="2" stroke-dasharray="5,2" d="M368,-87C368,-54.62 350.38,-34 318,-34"/>
</g>
</g>
</svg>
